<?xml version="1.0" encoding="UTF-8"?>
<svg id="Lager_1" data-name="Lager 1" xmlns="http://www.w3.org/2000/svg" viewBox="0 0 423.87 69.55">
  <defs>
    <style>
      .cls-1 {
        fill: #1d1d1b;
      }

      .cls-2 {
        fill: #F69CC0;
      }
    </style>
  </defs>
  <polygon class="cls-2" points="372.38 15.24 372.38 14.24 371.37 14.24 370.36 14.24 370.36 15.24 369.38 15.24 369.38 14.24 368.37 14.24 367.36 14.24 367.36 15.24 366.37 15.24 366.37 16.25 366.37 17.26 367.36 17.26 367.36 18.27 368.37 18.27 368.37 19.22 369.37 19.22 369.37 20.23 370.37 20.23 370.37 19.22 371.37 19.22 371.37 18.27 372.38 18.27 372.38 17.26 373.37 17.26 373.37 16.25 373.37 15.24 372.38 15.24"/>
  <path class="cls-1" d="M24.03,45.98v-22.46h13.92v4.32h3.36v-4.32h9.65v4.32h4.27v18.14h-5.23v-17.09h-7.73v17.09h-5.23v-17.09h-7.73v17.09h-5.28Z"/>
  <path class="cls-1" d="M64.88,45.98v-4.27h-4.32v-13.87h4.32v-4.32h13.92v4.32h4.37v12.77h4.32v5.38h-5.28v-4.27h-3.41v4.27h-13.92ZM65.84,40.6h12v-11.71h-12v11.71Z"/>
  <path class="cls-1" d="M91.85,45.98v-22.46h18.24v4.32h4.37v18.14h-5.33v-17.09h-12v17.09h-5.28Z"/>
  <path class="cls-1" d="M123.63,45.98v-4.27h-4.32v-13.87h4.32v-4.32h13.01v-8.5h5.28v26.69h-4.37v4.27h-13.92ZM124.59,40.6h12v-11.71h-12v11.71Z"/>
  <path class="cls-1" d="M151.09,54.47v-4.22h-4.32v-5.38h5.28v4.22h12.05v-7.39h-13.01v-4.27h-4.32v-13.92h5.28v12.77h12.05v-12.77h5.28v26.74h-4.32v4.22h-13.97Z"/>
  <path class="cls-1" d="M184.78,45.98v-22.46h13.92v4.32h3.36v-4.32h9.65v4.32h4.27v18.14h-5.23v-17.09h-7.73v17.09h-5.23v-17.09h-7.73v17.09h-5.28Z"/>
  <path class="cls-1" d="M225.63,45.98v-4.27h-4.32v-13.87h4.32v-4.32h13.92v4.32h4.37v13.87h-4.37v4.27h-13.92ZM226.59,40.6h12v-11.71h-12v11.71Z"/>
  <path class="cls-1" d="M254.05,45.98v-4.27h-4.32v-18.19h5.28v17.09h12v-17.09h5.33v18.19h-4.37v4.27h-13.92Z"/>
  <path class="cls-1" d="M278.14,45.98v-22.46h18.24v4.32h4.37v18.14h-5.33v-17.09h-12v17.09h-5.28Z"/>
  <path class="cls-1" d="M313.28,45.98v-4.27h-4.32v-12.82h-4.32v-5.38h4.32v-8.5h5.23v8.5h13.06v5.38h-13.06v11.71h12.1v-4.32h5.28v5.42h-4.32v4.27h-13.97Z"/>
  <path class="cls-1" d="M340.26,45.98v-4.27h-4.32v-13.87h4.32v-4.32h13.92v4.32h4.37v12.77h4.32v5.38h-5.28v-4.27h-3.41v4.27h-13.92ZM341.22,40.6h12v-11.71h-12v11.71Z"/>
  <rect class="cls-1" x="367.23" y="23.51" width="5.28" height="22.46"/>
  <path class="cls-1" d="M377.36,45.98v-22.46h18.24v4.32h4.37v18.14h-5.33v-17.09h-12v17.09h-5.28Z"/>
</svg>